# xmcd CD database file
#
# Track frame offsets:
#	150
#	20098
#	50631
#	74616
#	90650
#	111556
#	133204
#	148857
#	173676
#	199127
#	225344
#	260211
#
# Disc length: 3879 seconds
#
# Revision: 0
# Processed by: cddbd v1.5.2PL0 Copyright (c) Steve Scherf et al.
# Submitted via: CDex 1.50beta10
#
DISCID=bd0f250c
DTITLE=Jazz Classix - Dinner Jazz
DYEAR=1998
DGENRE=Jazz
TTITLE0=Bud Shank - Lotus Bud
TTITLE1=Buddy De Franco - Please Send me someone to love
TTITLE2=Lee Konitz - A Handful of Stars
TTITLE3=Marty Paich - Whats New
TTITLE4=Sue Raney - Summer Wishes, Winter Dreams
TTITLE5=Chamber Jaz Sextet - Bewitched
TTITLE6=Eddie Daniels - Emily
TTITLE7=Chet Baker - I waited for You
TTITLE8=David Liebman - On Green Dolphin Street
TTITLE9=Toots Thielemans - I never told You
TTITLE10=Philw Oods - Ballad
TTITLE11=Chico Freeman - Sometimes I feel like a motherless Child
EXTD=YEAR: 1998
EXTT0=
EXTT1=
EXTT2=
EXTT3=
EXTT4=
EXTT5=
EXTT6=
EXTT7=
EXTT8=
EXTT9=
EXTT10=
EXTT11=
PLAYORDER=
